<svg id="Layer_1" data-name="Layer 1" xmlns="http://www.w3.org/2000/svg" viewBox="0 0 532.43 287.67"><defs><style>.cls-1{fill:none;}</style></defs><title>Main_black_hor3</title><path d="M305.69,133.77v39.37h-7.13v-5.31c-2.84,4.29-9.17,5.89-14,6-13.75,0-21.18-9.68-21.18-20.52,0-10.63,7.72-20.16,21-20.16,4.88,0,10.77,1.16,14.27,5.89l-.08-5.24Zm-21.46,5.61c-8.59.14-13.76,6.18-13.76,13.9,0,7.56,5.32,14.4,14.34,14.18,6.48-.14,13.75-4.8,13.75-14C298.56,144,290.92,139.3,284.23,139.38Z"/><path d="M323,173.14h-7.13V122.2H323Z"/><path d="M372.42,155.17H339.09c0,7.71,7.35,12.37,13.25,12.37,4.87,0,9.38-2.11,11.71-6.55h7.35c-3,8.59-11.06,12.88-19.14,12.88-10.11,0-20.3-6.84-20.3-20.38s10-20.3,20.45-20.3c9.75,0,19.35,6.19,20.15,18.56A10.47,10.47,0,0,1,372.42,155.17Zm-7.35-5.9c-1.38-7.06-7-9.82-12.66-9.82s-11.57,2.84-13,9.82Z"/><path d="M390,133.12v5.53c2.69-3.93,6.47-5.53,11.06-5.53,5.53,0,10.48,1.31,13.39,6.84,2.4-4.37,6.84-6.77,12.59-6.84,10.84,0,15.57,7.64,15.57,17.61v22.41h-7.13V150.8c0-5.53-1.38-11.06-8.23-11.06S416.8,144.54,416.8,151v22.19h-7.13V151c0-5.53-2.11-11.28-8.66-11.28-6.25,0-11,4.29-11,12v21.39h-7.14v-40Z"/><circle class="cls-1" cx="156.44" cy="145.95" r="97.11"/><path d="M142.28,90.24A55.71,55.71,0,1,0,178.77,188V103.87A55.46,55.46,0,0,0,142.28,90.24Z"/><path d="M178.77,91.52v12.35a55.66,55.66,0,0,1,0,84.15v11.72h38.44V91.52Z"/><path class="cls-1" d="M198,146a55.55,55.55,0,0,0-19.22-42.08V188A55.56,55.56,0,0,0,198,146Z"/></svg>